<svg width="22" height="20" viewBox="0 0 22 20" fill="none" xmlns="http://www.w3.org/2000/svg">
<path d="M19.4095 2.60021C20.4281 3.62283 21 5.00736 21 6.45071C21 7.89405 20.4281 9.27859 19.4095 10.3012L10.9973 18.7801L2.58514 10.3012C1.82865 9.5396 1.31362 8.57177 1.10452 7.51887C0.895418 6.46598 1.00154 5.37479 1.40961 4.38191C1.81767 3.38904 2.50954 2.53859 3.39861 1.93703C4.28768 1.33547 5.33444 1.00952 6.40786 1C7.84321 1.00871 9.21706 1.58381 10.2306 2.60021C10.5262 2.89272 10.7838 3.22127 10.9973 3.57811C11.2109 3.22127 11.4685 2.89272 11.7641 2.60021C12.2635 2.09354 12.8586 1.69119 13.5149 1.41657C14.1711 1.14195 14.8754 1.00052 15.5868 1.00052C16.2982 1.00052 17.0025 1.14195 17.6588 1.41657C18.315 1.69119 18.9102 2.09354 19.4095 2.60021Z" stroke="black" stroke-width="0.729167" stroke-linecap="round" stroke-linejoin="round"/>
</svg>
